<svg xmlns="http://www.w3.org/2000/svg" viewBox="0 0 303.41 303.41"><defs><style>.cls-1{fill:#fff;}</style></defs><title>Fichier 1</title><g id="Calque_2" data-name="Calque 2"><g id="Calque_1-2" data-name="Calque 1"><path class="cls-1" d="M83.61,215.06c-5.46,0-11.39-2.6-16.15-7.12-5.14-4.88-7.95-11.16-7.72-17.24.47-12.17,14.29-16.12,20.94-18,1.11-.31,2.06-.59,2.71-.82l.68-.24c21.56-7.66,37.45-14.85,44.73-20.25l1.61-1.2,1.92.58c4,1.19,6.53,5.62,7.22,8.13h0c.32,1.14,2.25,3,9.69,5.2,2,.58,4.66,1.39,4.66,4.5,0,3.83-3.35,4.28-8.41,5-1.87.26-3.72.47-4.57.57-10.86,3.92-22.82,8.49-26.16,10.13-.39,1.13-1,3.13-1.54,4.82-1.27,4.09-2.7,8.72-4,11.76-3,6.9-13.84,13.25-24.09,14.17A14.66,14.66,0,0,1,83.61,215.06Zm47.46-55.55c-10.79,7-29.76,14.47-44.32,19.64l-.67.24c-.89.31-2,.62-3.2,1C75.67,182.43,68,185.12,67.74,191c-.15,3.78,1.76,7.83,5.23,11.13s7.93,5.2,11.41,4.88c8.47-.76,16-6.08,17.48-9.42,1.15-2.62,2.57-7.22,3.72-10.91,1.45-4.68,2-6.28,2.59-7.27.81-1.3,1.57-2.54,28.36-12.23a11.46,11.46,0,0,1-4.69-6.21A5.51,5.51,0,0,0,131.07,159.51Z"/><path class="cls-1" d="M172,159.11l-1.5-.61a29.23,29.23,0,0,1-3.68-1.64c-.75-.44-1.31-.74-1.72-1a6.49,6.49,0,0,1-3.53-3.68,37.84,37.84,0,0,0-1.88-3.64c-.89-1.06-5-2.77-6.42-3.33-2.34-1-4.54-1.86-4.54-4.69v-1.68l1.22-1.22c1.15-1.13,2.17-1.55,8.54-1.45,6.53-2.66,49.7-20.13,63.42-22.87,16.18-3.23,30.35,10,31,10.57l4.77,4.52-6.21,2.16c-.64.22-64,22.23-77.92,27.92Zm-3.19-10.3.12.06c.46.25,1.08.59,1.94,1.09,0,0,.27.15,1.14.51,13.31-5.24,53.19-19.22,69.64-25-4.55-2.79-11.3-5.71-18.17-4.33-11.47,2.29-46.88,16.35-58.78,21.14a8.69,8.69,0,0,1,1.89,2.21h0A43.17,43.17,0,0,1,168.79,148.81Z"/><path class="cls-1" d="M225.78,196.73a26.51,26.51,0,0,1-5.18-.51c-13.71-2.74-56.8-20.17-63.4-22.86-4.1,0-19.92-.49-23-11.84-.71-2.58-11.73-10.89-48.35-23.89l-.7-.25c-.65-.23-1.6-.51-2.71-.82-6.64-1.91-20.47-5.86-20.94-18-.23-6.08,2.58-12.36,7.72-17.24S81,93.71,86.82,94.24c10.25.92,21.06,7.27,24.09,14.17,1.34,3,2.77,7.67,4,11.75.52,1.69,1.15,3.7,1.54,4.83,3.33,1.64,15.25,6.19,26.09,10.11,4.19.33,18.91,2,23.3,9.64,1.26,2.21,1.86,3.5,2.22,4.28l.11.06c.47.25,1.08.59,1.93,1.09,3.67,2,51,18.74,80,28.8l6.21,2.16-4.77,4.52C251,186.16,239.7,196.73,225.78,196.73ZM158.61,165.3l.84.34c.49.2,48.92,20,62.72,22.74,6.92,1.38,13.65-1.54,18.2-4.33-20.92-7.29-70.09-24.53-74.26-27h0c-.76-.44-1.31-.74-1.72-1a6.5,6.5,0,0,1-3.53-3.69,40.42,40.42,0,0,0-1.92-3.69c-1.84-3.21-11.51-5.29-17.47-5.69l-.56,0-.53-.19c-28.87-10.4-29.65-11.67-30.48-13-.62-1-1.14-2.59-2.59-7.28-1.15-3.69-2.57-8.28-3.72-10.9-1.47-3.34-9-8.66-17.48-9.42-3.49-.32-8,1.6-11.41,4.88s-5.38,7.35-5.23,11.13c.22,5.89,7.93,8.58,15.14,10.64,1.24.36,2.31.67,3.2,1l.68.25c50.24,17.84,52.61,26.48,53.39,29.31,1.53,5.57,12.88,6.11,15.84,5.95Z"/><path class="cls-1" d="M151.71,285.71c-73.89,0-134-60.12-134-134s60.11-134,134-134,134,60.11,134,134S225.59,285.71,151.71,285.71Zm0-260a126,126,0,1,0,126,126A126.14,126.14,0,0,0,151.71,25.71Z"/><path class="cls-1" d="M151.71,303.41C68.05,303.41,0,235.36,0,151.71S68.05,0,151.71,0s151.7,68.05,151.7,151.71S235.36,303.41,151.71,303.41ZM151.71,8C72.47,8,8,72.47,8,151.71s64.47,143.7,143.71,143.7,143.7-64.47,143.7-143.7S230.94,8,151.71,8Z"/></g></g></svg>